<svg id="svg" version="1.1" xmlns="http://www.w3.org/2000/svg" xmlns:xlink="http://www.w3.org/1999/xlink" width="400" height="195.9183673469388" viewBox="0, 0, 400,195.9183673469388"><g id="svgg"><path id="path0" d="M65.000 32.849 C 64.663 32.937,63.837 33.128,63.163 33.273 C 62.490 33.419,61.847 33.598,61.735 33.671 C 61.622 33.744,61.117 33.931,60.612 34.086 C 60.107 34.242,59.393 34.534,59.024 34.735 C 58.656 34.937,58.234 35.102,58.087 35.102 C 57.939 35.102,57.652 35.286,57.449 35.510 C 57.246 35.735,56.979 35.919,56.856 35.919 C 56.733 35.920,56.149 36.287,55.557 36.736 C 54.966 37.184,54.431 37.551,54.370 37.551 C 54.048 37.551,51.021 40.921,50.152 42.245 C 42.322 54.182,46.978 69.102,60.306 74.790 C 69.227 78.596,82.039 74.527,86.809 66.373 C 89.146 62.380,89.998 59.573,90.153 55.357 L 90.260 52.449 80.130 52.408 C 74.559 52.386,69.656 52.363,69.235 52.357 L 68.469 52.347 68.469 56.283 L 68.469 60.219 74.133 60.218 C 77.456 60.217,79.796 60.294,79.796 60.405 C 79.796 60.740,79.327 61.633,79.151 61.633 C 79.057 61.633,78.979 61.747,78.978 61.888 C 78.966 63.336,74.193 66.832,71.224 67.566 C 61.153 70.058,52.126 58.355,56.833 48.910 C 57.116 48.343,57.347 47.806,57.347 47.717 C 57.347 46.709,61.152 43.172,63.265 42.217 C 66.389 40.804,72.004 40.833,73.561 42.270 C 73.668 42.369,73.881 42.449,74.036 42.449 C 74.834 42.449,77.841 45.232,79.103 47.138 C 79.761 48.132,79.718 48.130,80.877 47.245 C 81.391 46.852,81.910 46.531,82.029 46.531 C 82.148 46.531,82.245 46.454,82.245 46.361 C 82.245 46.268,82.497 46.061,82.805 45.902 C 83.114 45.743,83.550 45.447,83.775 45.244 C 84.339 44.736,86.331 43.298,86.588 43.212 C 87.834 42.797,82.695 37.339,79.541 35.728 C 79.232 35.570,78.980 35.365,78.980 35.272 C 78.980 35.178,78.814 35.102,78.612 35.102 C 78.410 35.102,78.158 35.022,78.051 34.923 C 77.792 34.685,75.184 33.658,74.286 33.440 C 71.628 32.797,70.499 32.655,68.163 32.672 C 66.760 32.682,65.337 32.762,65.000 32.849 M43.432 54.745 C 43.019 55.166,42.602 55.510,42.507 55.510 C 42.411 55.510,42.170 55.786,41.971 56.122 C 41.772 56.459,41.484 56.735,41.330 56.735 C 41.176 56.735,41.021 56.864,40.984 57.022 C 40.930 57.256,36.825 61.624,32.041 66.535 C 31.536 67.054,29.423 69.262,27.347 71.442 C 25.270 73.622,22.418 76.600,21.008 78.060 C 19.598 79.520,17.899 81.281,17.233 81.973 C 16.566 82.665,15.072 84.212,13.913 85.410 C 12.755 86.608,11.845 87.627,11.891 87.673 C 11.937 87.720,13.528 87.173,15.427 86.457 C 18.688 85.228,21.907 84.128,24.898 83.220 C 25.628 82.999,26.959 82.590,27.857 82.312 C 28.755 82.033,29.857 81.728,30.306 81.633 C 30.755 81.538,32.384 81.137,33.927 80.742 C 35.469 80.346,37.673 79.835,38.825 79.605 C 39.976 79.375,41.332 79.098,41.837 78.989 C 42.342 78.880,44.408 78.510,46.429 78.168 C 48.449 77.826,50.561 77.461,51.122 77.358 C 51.684 77.255,52.669 77.112,53.313 77.040 C 54.876 76.867,54.963 76.598,53.523 76.393 C 48.100 75.618,38.104 76.577,28.697 78.775 L 27.087 79.151 28.186 77.995 C 28.791 77.359,30.217 75.874,31.356 74.695 C 32.494 73.516,33.688 72.265,34.009 71.916 C 34.547 71.330,42.187 63.351,43.919 61.567 C 44.929 60.526,44.973 60.308,44.603 58.221 C 44.429 57.235,44.263 55.878,44.235 55.204 L 44.184 53.980 43.432 54.745 M92.449 54.577 C 92.449 54.828,92.385 55.098,92.306 55.177 C 92.228 55.255,92.187 55.707,92.217 56.180 C 92.246 56.654,92.121 57.758,91.940 58.634 L 91.611 60.228 92.193 60.879 C 93.854 62.738,94.626 63.557,97.283 66.277 C 98.876 67.907,100.667 69.820,101.263 70.527 C 101.859 71.235,102.465 71.819,102.608 71.825 C 102.752 71.831,102.921 71.969,102.983 72.131 C 103.045 72.293,103.800 73.148,104.660 74.031 C 110.139 79.656,109.926 79.174,106.613 78.462 C 98.939 76.813,94.570 76.263,88.980 76.242 C 82.962 76.219,80.091 76.628,83.416 77.035 C 84.633 77.184,89.048 77.920,91.990 78.464 C 92.916 78.635,94.385 78.905,95.255 79.064 C 97.618 79.494,101.403 80.352,104.388 81.134 C 105.847 81.517,107.270 81.889,107.551 81.961 C 110.517 82.725,119.928 85.854,121.939 86.745 C 123.005 87.218,124.578 87.735,124.670 87.643 C 124.726 87.586,124.227 86.979,123.560 86.292 C 122.893 85.606,122.209 84.887,122.041 84.694 C 121.872 84.501,120.449 83.020,118.878 81.404 C 116.001 78.445,114.112 76.475,107.551 69.597 C 105.587 67.538,103.773 65.651,103.520 65.403 C 103.268 65.156,103.061 64.872,103.061 64.773 C 103.060 64.673,102.785 64.408,102.449 64.184 C 102.113 63.959,101.838 63.716,101.837 63.643 C 101.836 63.439,100.453 62.102,100.104 61.968 C 99.935 61.903,99.796 61.765,99.796 61.662 C 99.796 61.558,99.038 60.701,98.112 59.756 C 94.975 56.555,93.265 54.709,93.265 54.521 C 93.265 54.418,93.082 54.285,92.857 54.227 C 92.539 54.143,92.449 54.220,92.449 54.577 M325.399 56.011 C 324.387 57.023,325.104 58.776,326.531 58.776 C 327.370 58.776,328.163 57.982,328.163 57.143 C 328.163 56.304,327.370 55.510,326.531 55.510 C 326.133 55.510,325.715 55.695,325.399 56.011 M223.061 59.530 L 223.061 62.937 222.398 62.295 C 218.995 59.003,213.078 60.758,211.709 65.466 C 209.706 72.357,217.410 78.068,222.296 73.315 L 223.061 72.570 223.061 73.632 L 223.061 74.694 224.286 74.694 L 225.510 74.694 225.510 65.408 L 225.510 56.122 224.286 56.122 L 223.061 56.122 223.061 59.530 M282.245 59.530 L 282.245 62.937 281.582 62.295 C 276.180 57.068,267.984 64.396,271.479 71.327 C 273.451 75.235,279.030 76.266,281.684 73.212 L 282.245 72.566 282.245 73.630 L 282.245 74.694 283.571 74.694 L 284.898 74.694 284.898 65.408 L 284.898 56.122 283.571 56.122 L 282.245 56.122 282.245 59.530 M342.245 59.530 L 342.245 62.937 341.582 62.295 C 338.176 59.000,332.261 60.758,330.890 65.474 C 328.891 72.352,336.601 78.061,341.480 73.315 L 342.245 72.570 342.245 73.632 L 342.245 74.694 343.469 74.694 L 344.694 74.694 344.694 65.408 L 344.694 56.122 343.469 56.122 L 342.245 56.122 342.245 59.530 M241.578 57.161 C 236.632 58.326,233.749 64.314,235.690 69.388 C 239.097 78.291,252.653 75.728,252.653 66.182 L 252.653 65.102 247.857 65.102 L 243.061 65.102 243.061 66.122 L 243.061 67.143 246.547 67.143 L 250.032 67.143 249.894 67.806 C 248.509 74.449,239.145 74.190,237.758 67.470 C 237.096 64.265,238.468 61.114,241.122 59.740 C 243.657 58.428,248.187 59.661,248.883 61.852 C 249.001 62.224,252.041 62.496,252.041 62.135 C 252.041 61.204,249.765 58.667,248.241 57.899 C 246.468 57.006,243.589 56.687,241.578 57.161 M184.328 57.704 C 183.774 59.249,178.382 74.028,178.260 74.337 C 178.135 74.655,178.265 74.694,179.451 74.694 L 180.783 74.694 181.141 73.724 C 181.338 73.191,181.656 72.342,181.848 71.837 L 182.197 70.918 185.918 70.918 L 189.638 70.918 190.289 72.755 L 190.939 74.592 192.301 74.652 L 193.663 74.712 192.932 72.713 C 192.531 71.614,191.440 68.602,190.508 66.020 C 189.576 63.439,188.473 60.385,188.056 59.235 L 187.298 57.143 185.914 57.143 C 184.589 57.143,184.521 57.167,184.328 57.704 M187.423 64.694 C 188.168 66.770,188.777 68.538,188.776 68.622 C 188.776 68.707,187.457 68.776,185.846 68.776 L 182.916 68.776 184.366 64.705 C 185.164 62.466,185.873 60.698,185.943 60.776 C 186.012 60.854,186.678 62.617,187.423 64.694 M201.176 60.802 C 200.356 61.069,199.227 61.807,198.877 62.307 C 198.587 62.722,198.571 62.695,198.571 61.780 L 198.571 60.816 197.347 60.816 L 196.122 60.816 196.122 67.755 L 196.122 74.694 197.324 74.694 L 198.526 74.694 198.604 70.255 C 198.710 64.149,199.378 62.845,202.407 62.830 C 205.580 62.815,206.163 63.918,206.281 70.153 L 206.366 74.694 207.592 74.694 L 208.818 74.694 208.722 69.847 C 208.600 63.723,208.252 62.623,206.023 61.317 C 205.005 60.721,202.309 60.434,201.176 60.802 M259.592 60.892 C 253.649 62.618,252.786 71.596,258.301 74.311 C 261.598 75.935,266.327 74.473,267.850 71.360 C 270.737 65.459,265.727 59.109,259.592 60.892 M297.891 60.905 C 293.299 62.139,293.679 66.952,298.488 68.460 C 302.146 69.606,302.857 70.027,302.857 71.045 C 302.857 73.226,298.315 73.497,297.279 71.378 C 296.829 70.457,294.490 70.146,294.490 71.007 C 294.490 75.539,303.927 76.404,305.118 71.982 C 305.791 69.483,304.473 68.057,300.303 66.771 C 298.187 66.118,297.439 65.641,297.230 64.809 C 296.654 62.512,301.471 62.040,302.420 64.300 C 302.825 65.265,305.102 65.593,305.102 64.687 C 305.102 61.899,301.407 59.960,297.891 60.905 M312.143 60.885 C 304.830 63.308,306.410 74.898,314.053 74.898 C 315.880 74.898,317.194 74.426,318.291 73.374 L 319.184 72.519 319.184 73.606 L 319.184 74.694 320.408 74.694 L 321.633 74.694 321.633 67.755 L 321.633 60.816 320.408 60.816 L 319.184 60.816 319.184 61.946 L 319.184 63.075 318.437 62.328 C 316.993 60.884,314.129 60.228,312.143 60.885 M325.306 67.755 L 325.306 74.694 326.531 74.694 L 327.755 74.694 327.755 67.755 L 327.755 60.816 326.531 60.816 L 325.306 60.816 325.306 67.755 M220.308 63.238 C 224.194 65.003,223.777 71.510,219.704 72.650 C 216.641 73.508,214.001 71.242,214.001 67.755 C 214.001 64.108,217.192 61.822,220.308 63.238 M264.124 63.587 C 267.930 66.259,266.027 72.867,261.454 72.855 C 256.761 72.842,255.441 65.127,259.797 63.171 C 260.991 62.636,263.051 62.833,264.124 63.587 M280.164 63.521 C 282.503 65.069,282.983 69.138,281.076 71.249 C 277.534 75.170,271.976 71.276,273.466 65.918 C 274.204 63.268,277.824 61.972,280.164 63.521 M316.466 63.284 C 319.635 64.817,319.957 70.067,317.003 72.023 C 313.312 74.468,308.951 70.748,310.181 66.205 C 310.925 63.454,313.932 62.057,316.466 63.284 M339.492 63.238 C 343.378 65.003,342.961 71.510,338.888 72.650 C 335.825 73.508,333.185 71.242,333.185 67.755 C 333.185 64.108,336.376 61.822,339.492 63.238 M347.800 73.112 C 347.555 74.038,347.131 75.604,346.857 76.592 L 346.359 78.388 347.272 78.327 L 348.185 78.265 349.601 74.898 C 350.380 73.046,351.018 71.508,351.019 71.480 C 351.020 71.452,350.396 71.429,349.633 71.429 L 348.245 71.429 347.800 73.112 M61.633 80.749 C 44.699 81.675,26.182 86.961,12.779 94.696 C 11.782 95.272,10.635 95.920,10.231 96.137 C 9.015 96.788,9.967 96.577,12.245 95.690 C 13.423 95.231,15.190 94.566,16.170 94.213 L 17.952 93.571 22.547 98.162 L 27.143 102.752 31.735 98.163 C 34.260 95.640,36.327 93.506,36.327 93.422 C 36.327 93.338,35.454 92.373,34.388 91.279 C 32.191 89.025,32.219 89.077,33.105 88.899 C 33.718 88.777,33.874 88.882,35.507 90.507 C 36.467 91.463,37.342 92.245,37.450 92.245 C 37.559 92.245,38.892 91.003,40.413 89.485 C 43.168 86.735,43.181 86.725,44.293 86.601 L 45.408 86.476 42.047 89.853 C 40.198 91.710,38.659 93.307,38.628 93.402 C 38.596 93.497,40.635 95.636,43.157 98.157 L 47.744 102.740 48.362 102.148 C 48.702 101.823,48.980 101.443,48.980 101.305 C 48.980 100.054,51.812 95.682,54.201 93.247 L 55.520 91.903 52.642 89.019 C 49.732 86.102,49.501 85.714,50.673 85.714 C 51.232 85.714,51.691 86.083,54.012 88.400 L 56.703 91.086 58.097 90.270 C 58.863 89.822,60.041 89.243,60.714 88.984 C 61.709 88.601,62.324 88.134,63.997 86.488 C 66.032 84.485,66.064 84.464,66.947 84.527 L 67.840 84.592 66.369 86.081 C 65.560 86.901,64.898 87.589,64.898 87.612 C 64.898 87.635,66.457 87.653,68.363 87.653 L 71.828 87.653 70.255 86.071 L 68.683 84.490 69.671 84.490 C 70.649 84.490,70.676 84.508,72.558 86.431 C 74.168 88.075,74.672 88.459,75.852 88.940 C 76.618 89.253,77.824 89.849,78.531 90.265 C 79.239 90.680,79.883 91.020,79.963 91.020 C 80.043 91.020,81.299 89.827,82.755 88.367 C 85.049 86.068,85.490 85.714,86.056 85.714 C 87.214 85.714,87.004 86.057,84.089 88.921 C 82.514 90.468,81.225 91.783,81.225 91.842 C 81.225 91.901,81.950 92.688,82.837 93.590 C 84.772 95.559,86.213 97.707,87.230 100.135 C 87.988 101.946,88.446 102.653,88.860 102.653 C 88.984 102.653,91.150 100.587,93.673 98.062 L 98.261 93.470 94.794 89.979 L 91.327 86.488 92.347 86.626 C 93.329 86.758,93.477 86.872,96.275 89.654 L 99.182 92.544 101.079 90.656 C 102.975 88.768,102.976 88.767,103.651 89.002 L 104.327 89.238 102.217 91.355 L 100.107 93.471 104.695 98.062 C 107.218 100.587,109.375 102.651,109.488 102.649 C 109.601 102.647,111.713 100.627,114.181 98.160 C 116.649 95.692,118.779 93.673,118.916 93.673 C 119.053 93.673,120.845 94.325,122.899 95.120 C 124.952 95.916,126.770 96.613,126.939 96.670 C 127.350 96.808,126.357 96.004,125.714 95.678 C 125.434 95.536,124.286 94.910,123.163 94.288 C 105.481 84.483,83.163 79.572,61.633 80.749 M151.348 86.990 C 151.503 90.029,151.492 90.000,152.444 90.000 C 153.380 90.000,153.392 89.965,153.536 86.786 L 153.622 84.898 152.432 84.898 L 151.242 84.898 151.348 86.990 M154.694 85.581 C 154.694 85.957,154.754 87.104,154.826 88.132 L 154.959 90.000 155.817 90.000 L 156.675 90.000 156.807 88.439 C 156.879 87.580,156.939 86.432,156.939 85.888 L 156.939 84.898 155.816 84.898 L 154.694 84.898 154.694 85.581 M372.042 86.071 C 372.043 86.717,372.102 87.865,372.174 88.622 L 372.304 90.000 373.193 90.000 L 374.082 90.000 374.083 89.133 C 374.084 88.656,374.143 87.508,374.215 86.582 L 374.346 84.898 373.194 84.898 L 372.041 84.898 372.042 86.071 M375.421 86.786 C 375.611 90.013,375.606 90.000,376.531 90.000 C 377.461 90.000,377.474 89.962,377.618 86.786 L 377.704 84.898 376.507 84.898 L 375.311 84.898 375.421 86.786 M319.925 86.137 C 318.782 87.037,319.520 88.991,320.997 88.973 C 322.539 88.954,323.092 86.943,321.804 86.041 C 321.173 85.599,320.570 85.630,319.925 86.137 M211.020 95.612 L 211.020 104.898 212.245 104.898 L 213.469 104.898 213.469 100.721 C 213.469 96.240,213.658 95.099,214.561 94.113 C 216.101 92.434,219.113 92.651,220.358 94.531 L 220.918 95.377 220.980 100.138 L 221.041 104.898 222.255 104.898 L 223.469 104.898 223.468 100.153 C 223.467 94.993,223.378 94.393,222.392 92.932 C 220.730 90.466,216.301 90.080,214.031 92.204 L 213.469 92.729 213.469 89.528 L 213.469 86.327 212.245 86.327 L 211.020 86.327 211.020 95.612 M274.286 95.612 L 274.286 104.898 275.510 104.898 L 276.735 104.898 276.735 103.836 L 276.735 102.774 277.500 103.519 C 279.732 105.690,283.710 105.701,286.111 103.543 C 288.934 101.005,289.147 95.766,286.547 92.805 C 284.385 90.343,279.809 90.205,277.482 92.532 L 276.735 93.279 276.735 89.803 L 276.735 86.327 275.510 86.327 L 274.286 86.327 274.286 95.612 M313.469 95.612 L 313.469 104.898 314.694 104.898 L 315.918 104.898 315.918 95.612 L 315.918 86.327 314.694 86.327 L 313.469 86.327 313.469 95.612 M342.857 95.612 L 342.857 104.898 344.082 104.898 L 345.306 104.898 345.307 100.663 C 345.309 94.363,345.997 93.019,349.215 93.034 C 352.241 93.049,352.736 94.027,352.820 100.153 L 352.884 104.898 354.108 104.898 L 355.332 104.898 355.268 99.847 C 355.196 94.146,355.087 93.655,353.566 92.178 C 351.775 90.439,348.049 90.337,346.134 91.976 L 345.306 92.685 345.306 89.506 L 345.306 86.327 344.082 86.327 L 342.857 86.327 342.857 95.612 M159.592 96.122 L 159.592 104.898 163.878 104.898 L 168.163 104.898 168.163 103.980 L 168.163 103.061 165.102 103.061 L 162.041 103.061 162.041 95.204 L 162.041 87.347 160.816 87.347 L 159.592 87.347 159.592 96.122 M186.531 89.286 L 186.531 91.020 185.612 91.020 L 184.694 91.020 184.694 92.041 L 184.694 93.061 185.599 93.061 L 186.504 93.061 186.568 97.924 C 186.654 104.422,186.943 104.898,190.796 104.898 L 192.653 104.898 192.653 103.878 L 192.653 102.857 191.349 102.857 C 189.065 102.857,189.093 102.920,189.020 97.569 L 188.957 93.061 190.805 93.061 L 192.653 93.061 192.653 92.041 L 192.653 91.020 190.816 91.020 L 188.980 91.020 188.980 89.286 L 188.980 87.551 187.755 87.551 L 186.531 87.551 186.531 89.286 M202.449 89.286 L 202.449 91.020 201.531 91.020 L 200.612 91.020 200.612 92.041 L 200.612 93.061 201.517 93.061 L 202.423 93.061 202.487 98.010 C 202.571 104.475,202.824 104.898,206.612 104.898 L 208.367 104.898 208.367 103.878 L 208.367 102.857 207.041 102.857 C 204.869 102.857,204.898 102.928,204.898 97.551 L 204.898 93.061 206.633 93.061 L 208.367 93.061 208.367 92.041 L 208.367 91.020 206.633 91.020 L 204.898 91.020 204.898 89.286 L 204.898 87.551 203.673 87.551 L 202.449 87.551 202.449 89.286 M359.388 89.286 L 359.388 91.020 358.469 91.020 L 357.551 91.020 357.551 92.041 L 357.551 93.061 358.456 93.061 L 359.361 93.061 359.425 97.908 C 359.512 104.441,359.789 104.898,363.653 104.898 L 365.510 104.898 365.510 103.878 L 365.510 102.857 364.206 102.857 C 361.923 102.857,361.950 102.920,361.877 97.569 L 361.815 93.061 363.662 93.061 L 365.510 93.061 365.510 92.041 L 365.510 91.020 363.673 91.020 L 361.837 91.020 361.837 89.286 L 361.837 87.551 360.612 87.551 L 359.388 87.551 359.388 89.286 M174.139 91.208 C 170.346 92.501,168.611 96.818,170.190 101.037 C 172.000 105.876,179.235 106.711,182.128 102.415 C 183.208 100.811,183.142 100.612,181.531 100.612 C 180.785 100.612,180.204 100.701,180.204 100.816 C 180.204 101.242,178.717 102.641,178.018 102.871 C 175.519 103.696,172.280 101.771,172.251 99.442 L 172.245 98.986 177.704 98.932 L 183.163 98.878 183.141 97.339 C 183.073 92.622,178.710 89.650,174.139 91.208 M230.684 91.223 C 225.187 93.026,224.685 101.931,229.934 104.515 C 233.468 106.255,238.063 104.606,239.387 101.124 L 239.582 100.612 238.294 100.612 C 237.031 100.612,236.998 100.626,236.514 101.378 C 234.602 104.343,229.656 103.218,228.886 99.643 L 228.743 98.980 234.295 98.980 L 239.847 98.980 239.753 97.296 C 239.485 92.477,235.335 89.698,230.684 91.223 M247.025 91.303 C 246.455 91.568,245.789 92.039,245.545 92.349 L 245.102 92.912 245.102 91.966 L 245.102 91.020 243.878 91.020 L 242.653 91.020 242.653 97.959 L 242.653 104.898 243.878 104.898 L 245.102 104.898 245.103 100.765 C 245.105 94.858,245.520 93.877,248.214 93.417 L 249.592 93.182 249.592 91.999 L 249.592 90.816 248.827 90.818 C 248.406 90.819,247.595 91.038,247.025 91.303 M255.592 91.220 C 250.082 93.027,249.603 101.939,254.878 104.537 C 258.328 106.237,263.371 104.397,264.378 101.071 C 264.662 100.135,262.038 100.406,261.412 101.378 C 259.396 104.505,253.673 102.779,253.673 99.045 C 253.673 99.009,256.153 98.980,259.184 98.980 L 264.694 98.980 264.694 97.559 C 264.694 92.737,260.300 89.677,255.592 91.220 M294.962 91.195 C 288.989 93.259,288.802 102.855,294.698 104.759 C 298.460 105.974,303.673 103.688,303.673 100.824 C 303.673 100.132,301.124 100.626,300.571 101.425 C 298.518 104.395,293.100 102.961,293.066 99.439 L 293.061 98.980 298.469 98.980 L 303.878 98.980 303.911 98.418 C 304.234 93.012,299.878 89.496,294.962 91.195 M329.456 91.182 C 324.784 92.851,323.472 99.429,327.048 103.252 C 329.392 105.758,334.116 105.733,336.247 103.202 L 336.795 102.551 336.693 104.517 C 336.537 107.503,335.805 108.733,333.797 109.385 C 331.926 109.992,329.328 109.064,328.519 107.500 C 328.128 106.744,328.108 106.735,326.897 106.735 L 325.670 106.735 325.810 107.296 C 326.967 111.937,334.276 113.393,337.572 109.639 C 339.078 107.923,339.075 107.949,339.144 99.031 L 339.205 91.020 337.970 91.020 L 336.735 91.020 336.735 92.150 L 336.735 93.279 335.988 92.532 C 334.446 90.990,331.624 90.407,329.456 91.182 M319.728 91.156 C 319.653 91.231,319.592 94.354,319.592 98.095 L 319.592 104.898 320.918 104.898 L 322.245 104.898 322.245 97.959 L 322.245 91.020 321.054 91.020 C 320.400 91.020,319.803 91.082,319.728 91.156 M178.571 93.475 C 179.462 93.923,179.897 94.397,180.298 95.358 C 180.986 97.003,181.142 96.939,176.429 96.939 C 171.687 96.939,171.838 97.005,172.704 95.310 C 173.807 93.152,176.346 92.357,178.571 93.475 M235.022 93.401 C 236.003 93.852,236.769 94.783,237.042 95.858 L 237.290 96.837 233.105 96.892 C 228.336 96.955,228.727 97.031,228.987 96.087 C 229.706 93.486,232.499 92.242,235.022 93.401 M259.705 93.271 C 260.836 93.697,261.849 94.949,262.134 96.276 L 262.277 96.939 257.992 96.939 L 253.706 96.939 253.914 96.173 C 254.614 93.591,257.162 92.314,259.705 93.271 M299.335 93.505 C 300.268 93.944,300.821 94.595,301.193 95.694 C 301.636 96.998,301.823 96.939,297.245 96.939 C 292.520 96.939,292.600 96.972,293.465 95.349 C 294.710 93.014,296.859 92.338,299.335 93.505 M283.438 93.594 C 285.304 94.524,286.284 97.011,285.717 99.375 C 284.604 104.018,278.353 104.258,277.035 99.709 C 275.750 95.273,279.541 91.652,283.438 93.594 M333.731 93.336 C 337.202 94.791,337.682 100.156,334.528 102.245 C 330.713 104.772,326.322 100.745,327.856 96.126 C 328.661 93.701,331.446 92.379,333.731 93.336 M32.954 98.965 C 30.487 101.427,28.445 103.562,28.414 103.710 C 28.384 103.858,30.405 106.023,32.906 108.520 L 37.452 113.061 42.114 108.396 L 46.777 103.730 42.173 99.110 C 39.642 96.569,37.540 94.490,37.504 94.490 C 37.468 94.490,35.420 96.504,32.954 98.965 M94.539 99.032 C 92.043 101.531,90.000 103.649,90.000 103.740 C 90.000 103.830,92.074 105.974,94.610 108.503 L 99.220 113.102 103.792 108.541 C 106.306 106.032,108.365 103.887,108.366 103.774 C 108.367 103.572,99.381 94.490,99.180 94.490 C 99.124 94.490,97.036 96.534,94.539 99.032 M121.482 97.300 C 120.769 98.170,120.903 98.545,122.495 100.148 C 123.573 101.233,123.864 101.633,123.579 101.633 C 123.110 101.633,121.167 101.278,119.527 100.893 C 118.451 100.640,118.294 100.647,117.850 100.970 C 117.093 101.520,117.198 101.716,119.489 104.041 C 121.002 105.576,121.598 106.317,121.520 106.563 C 121.413 106.901,121.966 107.755,122.293 107.755 C 122.560 107.755,123.661 106.451,123.667 106.127 C 123.671 105.962,123.008 105.148,122.194 104.319 L 120.714 102.813 121.735 102.923 C 122.296 102.983,123.398 103.177,124.184 103.353 C 126.089 103.780,126.566 103.753,126.973 103.192 C 127.309 102.729,127.283 102.692,125.083 100.416 C 123.460 98.737,122.908 98.041,123.058 97.861 C 123.202 97.687,123.150 97.480,122.884 97.174 C 122.381 96.594,122.035 96.625,121.482 97.300 M56.531 97.752 C 55.662 97.905,51.020 102.061,51.020 102.686 C 51.020 102.890,53.042 104.902,53.235 104.889 C 53.308 104.885,53.824 104.430,54.382 103.880 C 55.744 102.536,55.733 102.499,55.690 108.673 C 55.642 115.419,55.923 114.694,53.354 114.694 L 51.224 114.694 51.224 116.327 L 51.224 117.959 57.551 117.959 L 63.878 117.959 63.878 116.327 L 63.878 114.694 62.058 114.694 C 61.056 114.694,60.092 114.638,59.915 114.570 C 59.628 114.460,59.592 113.532,59.592 106.215 C 59.592 99.879,59.533 97.947,59.338 97.827 C 58.973 97.601,57.596 97.564,56.531 97.752 M73.571 97.755 C 73.502 97.867,73.233 97.959,72.973 97.959 C 72.381 97.959,72.245 98.537,72.245 101.046 L 72.245 102.857 73.976 102.857 C 75.789 102.857,76.235 102.547,75.852 101.551 C 75.727 101.224,76.184 101.118,78.622 100.906 C 79.492 100.830,80.204 100.829,80.204 100.903 C 80.204 101.027,78.616 103.236,78.359 103.469 C 75.390 106.165,75.370 108.874,78.319 109.009 C 80.764 109.120,82.145 110.547,81.636 112.438 C 80.958 114.956,77.644 115.384,74.580 113.350 C 73.955 112.936,73.374 112.678,73.288 112.778 C 72.196 114.047,71.543 115.452,71.888 115.790 C 74.403 118.256,79.162 119.016,82.245 117.443 C 86.979 115.027,86.737 107.662,81.873 106.109 C 80.722 105.741,80.725 105.727,82.367 103.668 C 83.214 102.605,83.957 101.620,84.017 101.480 C 84.076 101.339,84.230 101.224,84.359 101.223 C 84.771 101.220,85.102 100.158,85.102 98.837 L 85.102 97.551 79.400 97.551 C 75.818 97.551,73.651 97.627,73.571 97.755 M13.673 98.508 C 11.473 99.289,10.849 101.713,12.041 104.850 C 12.749 106.713,12.531 107.755,11.433 107.755 C 10.360 107.755,9.422 106.601,9.195 105.000 L 9.079 104.184 8.162 104.256 C 6.914 104.354,6.872 104.402,7.009 105.559 C 7.242 107.534,8.921 109.594,10.631 110.004 C 13.714 110.744,16.041 107.641,14.689 104.592 C 13.594 102.122,13.607 100.816,14.725 100.816 C 15.288 100.816,16.122 101.262,16.122 101.563 C 16.122 101.714,16.214 101.837,16.327 101.837 C 16.615 101.837,16.581 102.930,16.282 103.228 C 15.815 103.695,17.406 105.044,18.030 104.711 C 20.988 103.127,16.931 97.352,13.673 98.508 M66.165 100.378 C 65.975 100.498,65.918 101.026,65.961 102.262 L 66.020 103.980 67.806 104.039 L 69.592 104.098 69.592 102.275 C 69.592 100.801,69.530 100.428,69.269 100.328 C 68.794 100.146,66.472 100.183,66.165 100.378 M367.893 101.786 C 367.757 102.015,366.122 108.083,366.122 108.358 C 366.122 108.510,366.426 108.572,366.970 108.532 L 367.818 108.469 369.215 105.133 C 369.983 103.298,370.612 101.760,370.612 101.715 C 370.612 101.563,367.984 101.631,367.893 101.786 M115.010 104.337 C 114.567 104.454,114.022 104.720,113.798 104.928 C 113.575 105.136,113.272 105.306,113.125 105.306 C 112.978 105.306,112.857 105.442,112.857 105.607 C 112.857 105.773,112.674 106.209,112.450 106.577 C 110.700 109.447,114.377 113.491,117.617 112.259 C 122.571 110.375,120.139 102.982,115.010 104.337 M43.152 109.386 C 40.689 111.854,38.651 113.944,38.623 114.030 C 38.594 114.116,40.637 116.251,43.163 118.775 L 47.755 123.364 49.624 121.495 L 51.493 119.626 50.856 118.634 C 48.898 115.582,48.144 112.846,48.012 108.316 C 47.957 106.436,47.848 104.898,47.770 104.898 C 47.692 104.898,45.614 106.917,43.152 109.386 M88.769 104.949 C 88.765 104.977,88.732 106.469,88.696 108.265 C 88.614 112.289,88.253 113.780,86.525 117.242 L 85.304 119.689 87.141 121.526 L 88.979 123.364 93.619 118.722 L 98.260 114.080 93.673 109.489 C 89.707 105.521,88.803 104.684,88.769 104.949 M116.915 105.960 C 119.483 106.761,119.031 110.816,116.375 110.816 C 113.148 110.816,112.792 106.327,115.973 105.743 C 116.059 105.727,116.483 105.825,116.915 105.960 M19.345 106.193 C 14.390 107.587,13.240 114.684,17.503 117.565 C 22.790 121.140,29.612 115.691,27.063 109.929 C 25.740 106.937,22.417 105.329,19.345 106.193 M23.571 109.170 C 27.461 111.904,23.059 118.389,19.070 115.803 C 16.354 114.042,16.951 109.316,19.973 108.654 C 20.268 108.589,20.602 108.502,20.714 108.460 C 21.258 108.257,22.828 108.647,23.571 109.170 M108.929 109.846 C 108.395 110.423,107.959 111.067,107.959 111.276 C 107.959 111.485,107.878 111.607,107.779 111.545 C 107.380 111.299,103.061 115.504,103.061 116.140 C 103.061 117.298,104.490 118.070,104.823 117.092 C 104.909 116.839,104.959 116.560,104.936 116.471 C 104.873 116.237,105.291 115.510,105.489 115.510 C 105.582 115.510,106.641 116.474,107.843 117.653 C 110.250 120.014,110.157 119.959,110.805 119.397 C 111.415 118.868,111.445 118.916,108.933 116.363 C 106.807 114.201,106.755 114.127,107.134 113.783 C 107.349 113.589,107.621 113.489,107.738 113.561 C 108.442 113.996,109.109 112.872,108.560 112.175 C 108.093 111.581,108.037 111.274,108.460 111.625 C 108.623 111.760,108.926 111.816,109.134 111.750 C 109.732 111.561,113.103 114.874,112.822 115.375 C 112.668 115.651,112.706 115.843,112.972 116.137 C 113.466 116.683,113.524 116.662,114.708 115.496 L 115.759 114.462 115.300 113.973 C 114.944 113.595,114.758 113.530,114.469 113.685 C 114.164 113.848,113.919 113.701,113.120 112.875 C 110.995 110.681,110.816 110.456,110.816 109.959 C 110.816 109.529,110.264 108.752,109.984 108.786 C 109.937 108.792,109.462 109.269,108.929 109.846 M65.918 113.469 C 65.918 115.077,65.963 115.308,66.276 115.322 C 66.472 115.331,67.276 115.352,68.061 115.370 L 69.490 115.403 69.548 113.518 L 69.607 111.633 67.763 111.633 L 65.918 111.633 65.918 113.469 M29.934 113.840 C 29.484 114.309,29.407 114.535,29.513 115.065 C 29.635 115.673,29.525 115.834,27.832 117.527 C 22.332 123.024,22.593 122.430,24.716 124.626 C 28.074 128.098,28.232 128.173,29.542 126.939 C 30.585 125.956,30.585 125.965,29.711 125.119 C 29.053 124.481,28.988 124.461,28.562 124.759 C 28.131 125.061,28.067 125.030,27.117 124.055 C 25.861 122.765,25.611 123.267,29.386 119.490 C 33.149 115.724,33.165 115.687,31.749 114.209 C 30.686 113.100,30.650 113.093,29.934 113.840 M336.048 116.137 C 334.904 117.037,335.643 118.991,337.119 118.973 C 338.195 118.960,338.940 117.907,338.587 116.896 C 338.170 115.699,337.036 115.360,336.048 116.137 M186.939 119.708 C 186.939 122.797,186.911 123.062,186.615 122.767 C 181.034 117.185,172.553 124.388,176.210 131.604 C 178.068 135.271,183.315 136.368,186.140 133.680 L 186.939 132.920 186.939 133.909 L 186.939 134.898 188.265 134.898 L 189.592 134.898 189.592 125.612 L 189.592 116.327 188.265 116.327 L 186.939 116.327 186.939 119.708 M208.980 125.612 L 208.980 134.898 210.182 134.898 L 211.384 134.898 211.461 130.459 C 211.567 124.353,212.235 123.049,215.264 123.034 C 218.437 123.019,219.021 124.122,219.138 130.357 L 219.223 134.898 220.449 134.898 L 221.675 134.898 221.583 130.051 C 221.481 124.716,221.347 124.002,220.179 122.585 C 218.420 120.451,214.184 120.205,212.155 122.118 L 211.429 122.803 211.429 119.565 L 211.429 116.327 210.204 116.327 L 208.980 116.327 208.980 125.612 M329.592 125.612 L 329.592 134.898 330.816 134.898 L 332.041 134.898 332.041 125.612 L 332.041 116.327 330.816 116.327 L 329.592 116.327 329.592 125.612 M358.980 125.612 L 358.980 134.898 360.204 134.898 L 361.429 134.898 361.430 130.663 C 361.431 124.363,362.120 123.019,365.337 123.034 C 368.363 123.049,368.859 124.027,368.942 130.153 L 369.007 134.898 370.218 134.898 L 371.429 134.898 371.427 130.153 C 371.426 124.993,371.337 124.393,370.352 122.932 C 368.689 120.466,364.260 120.080,361.990 122.204 L 361.429 122.729 361.429 119.528 L 361.429 116.327 360.204 116.327 L 358.980 116.327 358.980 125.612 M101.071 117.800 C 100.819 117.922,100.612 118.099,100.612 118.194 C 100.612 118.290,100.429 118.367,100.204 118.367 C 99.932 118.367,99.796 118.503,99.796 118.776 C 99.796 119.000,99.714 119.184,99.614 119.184 C 98.490 119.184,98.593 122.741,99.757 124.100 C 102.268 127.033,107.620 125.219,107.109 121.608 C 106.989 120.758,105.809 120.804,105.636 121.665 C 105.032 124.688,101.010 124.796,100.504 121.803 C 100.247 120.281,102.093 118.501,102.994 119.402 C 103.150 119.558,103.337 119.463,103.641 119.076 C 104.527 117.950,102.671 117.028,101.071 117.800 M200.408 119.286 L 200.408 121.020 199.490 121.020 L 198.571 121.020 198.571 122.041 L 198.571 123.061 199.476 123.061 L 200.381 123.061 200.446 127.908 C 200.533 134.444,200.805 134.898,204.640 134.898 L 206.531 134.898 206.531 133.878 L 206.531 132.857 205.195 132.857 C 202.885 132.857,202.857 132.793,202.857 127.458 L 202.857 123.061 204.694 123.061 L 206.531 123.061 206.531 122.041 L 206.531 121.020 204.694 121.020 L 202.857 121.020 202.857 119.286 L 202.857 117.551 201.633 117.551 L 200.408 117.551 200.408 119.286 M375.510 119.286 L 375.510 121.020 374.592 121.020 L 373.673 121.020 373.673 122.041 L 373.673 123.061 374.592 123.061 L 375.510 123.061 375.510 127.359 C 375.510 134.185,375.917 134.898,379.809 134.898 L 381.633 134.898 381.633 133.878 L 381.633 132.857 380.329 132.857 C 378.045 132.857,378.073 132.920,377.999 127.569 L 377.937 123.061 379.785 123.061 L 381.633 123.061 381.633 122.041 L 381.633 121.020 379.796 121.020 L 377.959 121.020 377.959 119.286 L 377.959 117.551 376.735 117.551 L 375.510 117.551 375.510 119.286 M50.495 122.595 L 48.733 124.342 53.293 128.905 C 55.802 131.416,57.948 133.469,58.062 133.469 C 58.177 133.469,59.497 132.241,60.996 130.739 L 63.721 128.008 62.013 127.445 C 58.759 126.371,56.229 124.804,53.731 122.316 L 52.257 120.849 50.495 122.595 M82.857 122.287 C 80.641 124.663,77.992 126.335,74.736 127.415 C 73.918 127.687,73.209 127.947,73.162 127.995 C 73.114 128.042,74.337 129.340,75.878 130.878 L 78.681 133.676 83.218 129.125 C 85.713 126.621,87.755 124.484,87.755 124.374 C 87.755 124.163,84.448 120.799,84.281 120.841 C 84.228 120.855,83.587 121.505,82.857 122.287 M147.041 121.090 C 139.728 123.512,141.308 135.102,148.951 135.102 C 150.778 135.102,152.092 134.630,153.189 133.579 L 154.082 132.723 154.082 133.810 L 154.082 134.898 155.306 134.898 L 156.531 134.898 156.531 127.959 L 156.531 121.020 155.306 121.020 L 154.082 121.020 154.082 122.150 L 154.082 123.279 153.335 122.532 C 151.891 121.088,149.027 120.432,147.041 121.090 M164.922 121.123 C 164.429 121.276,163.718 121.701,163.340 122.067 L 162.653 122.733 162.653 121.877 L 162.653 121.020 161.429 121.020 L 160.204 121.020 160.204 127.959 L 160.204 134.898 161.429 134.898 L 162.653 134.898 162.654 130.663 C 162.656 124.363,163.344 123.019,166.562 123.034 C 169.588 123.049,170.083 124.027,170.167 130.153 L 170.231 134.898 171.442 134.898 L 172.653 134.898 172.653 130.241 C 172.653 124.688,172.504 123.947,171.079 122.423 C 169.665 120.912,167.239 120.400,164.922 121.123 M228.903 121.150 C 223.929 122.678,222.544 129.948,226.542 133.543 C 229.908 136.569,236.243 135.133,237.443 131.071 C 237.716 130.148,235.104 130.404,234.473 131.362 C 232.574 134.246,227.782 133.310,227.003 129.903 L 226.791 128.980 232.273 128.980 L 237.755 128.980 237.755 127.558 C 237.755 122.760,233.557 119.721,228.903 121.150 M245.383 121.147 C 244.920 121.311,244.208 121.778,243.801 122.185 L 243.061 122.925 243.061 121.973 L 243.061 121.020 241.837 121.020 L 240.612 121.020 240.612 127.959 L 240.612 134.898 241.819 134.898 L 243.027 134.898 243.095 130.459 C 243.185 124.626,243.606 123.729,246.423 123.377 L 247.551 123.236 247.551 122.026 L 247.551 120.816 246.888 120.832 C 246.523 120.841,245.846 120.983,245.383 121.147 M253.936 121.112 C 248.192 122.907,247.402 131.689,252.737 134.439 C 256.284 136.269,262.449 133.974,262.449 130.824 C 262.449 130.102,259.896 130.640,259.281 131.492 C 257.223 134.346,251.837 132.866,251.837 129.447 L 251.837 128.980 257.222 128.980 L 262.608 128.980 262.731 128.316 C 263.590 123.699,258.638 119.643,253.936 121.112 M296.590 121.115 C 291.672 122.734,290.387 130.110,294.407 133.647 C 296.756 135.715,301.079 135.607,303.066 133.431 L 303.673 132.766 303.673 133.832 L 303.673 134.898 304.898 134.898 L 306.122 134.898 306.122 127.959 L 306.122 121.020 304.898 121.020 L 303.673 121.020 303.673 122.081 L 303.673 123.141 303.010 122.499 C 301.563 121.099,298.587 120.458,296.590 121.115 M312.799 121.039 C 310.006 121.697,308.663 124.096,309.792 126.415 C 310.334 127.530,311.418 128.164,314.324 129.064 C 317.562 130.066,318.222 130.876,316.956 132.293 C 315.744 133.648,312.604 133.139,311.851 131.465 C 311.466 130.609,309.184 130.435,309.184 131.262 C 309.184 135.845,318.574 136.577,319.783 132.088 C 320.425 129.706,319.127 128.255,315.336 127.113 C 313.083 126.434,312.088 125.870,311.913 125.172 C 311.301 122.737,316.155 122.114,317.095 124.507 L 317.409 125.306 318.602 125.306 C 319.911 125.306,319.929 125.282,319.577 124.016 C 318.923 121.659,315.867 120.317,312.799 121.039 M345.552 121.191 C 340.776 122.895,339.579 130.035,343.481 133.543 C 345.938 135.752,350.344 135.603,352.336 133.243 L 352.920 132.551 352.808 134.610 C 352.648 137.542,352.046 138.581,350.044 139.380 C 348.313 140.070,345.456 139.076,344.641 137.500 C 344.252 136.746,344.227 136.735,343.037 136.735 L 341.829 136.735 341.964 137.296 C 343.060 141.859,350.133 143.351,353.614 139.754 C 355.172 138.144,355.197 137.982,355.264 129.031 L 355.324 121.020 354.091 121.020 L 352.857 121.020 352.857 122.157 L 352.857 123.294 352.170 122.566 C 350.710 121.018,347.756 120.404,345.552 121.191 M270.668 121.280 C 270.723 121.424,271.713 124.546,272.868 128.219 L 274.967 134.898 276.248 134.898 L 277.528 134.898 278.242 132.602 C 278.635 131.339,279.350 129.001,279.831 127.405 C 280.312 125.809,280.764 124.616,280.835 124.752 C 280.906 124.888,281.636 127.231,282.457 129.957 L 283.950 134.915 285.262 134.855 L 286.573 134.796 288.689 128.061 C 289.852 124.357,290.807 121.258,290.810 121.173 C 290.814 121.089,290.272 121.020,289.606 121.020 L 288.396 121.020 288.091 122.092 C 287.923 122.681,287.253 125.156,286.603 127.591 C 285.953 130.027,285.376 131.974,285.320 131.919 C 285.265 131.864,284.523 129.412,283.672 126.470 L 282.125 121.122 280.869 121.062 L 279.614 121.002 279.222 122.286 C 279.007 122.993,278.251 125.537,277.542 127.939 L 276.254 132.307 274.722 126.664 L 273.191 121.020 271.880 121.020 C 270.901 121.020,270.594 121.086,270.668 121.280 M335.918 127.959 L 335.918 134.898 337.143 134.898 L 338.367 134.898 338.367 127.959 L 338.367 121.020 337.143 121.020 L 335.918 121.020 335.918 127.959 M96.224 122.602 C 95.380 123.736,95.387 123.755,97.454 125.795 C 99.564 127.878,99.690 128.181,98.859 129.168 C 97.942 130.259,97.480 130.084,95.165 127.768 C 93.368 125.972,92.997 125.834,92.171 126.660 C 91.378 127.453,91.695 128.369,92.703 128.198 C 92.968 128.153,93.532 128.560,94.405 129.423 C 96.849 131.838,98.365 132.068,100.026 130.273 C 101.634 128.536,101.405 127.345,99.013 125.000 C 98.074 124.080,97.763 123.632,97.759 123.200 C 97.751 122.049,96.887 121.712,96.224 122.602 M232.401 123.168 C 233.962 123.632,234.829 124.596,235.194 126.276 L 235.339 126.939 231.112 126.939 L 226.885 126.939 227.006 126.196 C 227.256 124.652,228.653 123.318,230.306 123.044 C 230.755 122.969,231.175 122.897,231.238 122.883 C 231.302 122.869,231.825 122.997,232.401 123.168 M258.197 123.492 C 259.023 123.907,259.610 124.637,259.969 125.694 C 260.411 126.998,260.599 126.939,256.020 126.939 C 251.946 126.939,251.837 126.928,251.837 126.522 C 251.837 125.450,253.493 123.401,254.545 123.172 C 256.100 122.835,257.055 122.918,258.197 123.492 M151.364 123.488 C 156.245 125.850,153.730 134.052,148.485 132.879 C 144.059 131.888,143.626 124.556,147.917 123.263 C 148.961 122.948,150.450 123.045,151.364 123.488 M184.931 123.785 C 187.338 125.476,187.682 129.621,185.590 131.713 C 182.030 135.274,176.502 131.080,178.195 126.102 C 179.136 123.336,182.598 122.145,184.931 123.785 M300.772 123.378 C 303.966 124.712,304.667 129.644,301.988 131.937 C 298.436 134.977,293.412 131.159,294.779 126.457 C 295.563 123.760,298.309 122.349,300.772 123.378 M350.209 123.520 C 354.553 125.718,353.059 133.013,348.280 132.940 C 345.563 132.899,343.673 130.855,343.673 127.959 C 343.673 124.306,347.126 121.961,350.209 123.520 M39.049 124.170 C 38.057 124.647,36.923 125.183,36.531 125.360 C 36.138 125.537,34.806 126.155,33.571 126.733 C 31.998 127.469,31.166 127.751,30.790 127.677 C 30.377 127.595,30.131 127.709,29.719 128.172 C 28.369 129.686,30.562 130.957,32.676 129.886 C 33.889 129.272,33.703 129.180,35.874 131.469 L 36.544 132.176 36.029 133.282 C 35.262 134.929,35.796 136.728,37.054 136.734 C 37.506 136.736,38.411 135.560,38.278 135.143 C 38.144 134.721,38.396 134.082,40.099 130.510 C 40.634 129.388,41.396 127.781,41.792 126.939 C 42.188 126.097,42.545 125.346,42.586 125.270 C 42.626 125.194,42.253 124.720,41.756 124.216 L 40.854 123.301 39.049 124.170 M38.628 128.316 C 38.111 129.298,37.678 130.120,37.665 130.141 C 37.605 130.245,35.918 128.517,35.918 128.351 C 35.918 128.182,39.072 126.551,39.427 126.536 C 39.504 126.533,39.145 127.334,38.628 128.316 M62.164 131.421 C 60.525 133.055,59.184 134.484,59.184 134.596 C 59.184 134.708,61.251 136.865,63.777 139.389 L 68.371 143.980 72.959 139.388 C 75.482 136.862,77.548 134.740,77.549 134.672 C 77.550 134.604,76.196 133.182,74.541 131.512 L 71.531 128.475 68.337 128.462 L 65.144 128.450 62.164 131.421 M45.003 129.180 C 44.431 129.778,44.427 129.796,44.801 130.210 C 45.179 130.627,45.153 130.659,41.672 134.144 C 37.734 138.087,37.901 137.803,38.912 138.844 L 39.661 139.615 41.238 138.048 L 42.815 136.480 43.332 136.862 C 44.100 137.431,44.117 137.831,43.457 139.866 C 42.693 142.224,42.703 142.481,43.589 143.462 C 44.548 144.523,46.170 143.681,45.517 142.461 C 45.357 142.162,45.431 141.665,45.825 140.421 L 46.344 138.776 47.262 138.776 C 49.745 138.776,51.498 136.409,50.836 133.951 C 50.601 133.076,46.443 128.571,45.871 128.571 C 45.714 128.571,45.324 128.845,45.003 129.180 M89.536 129.388 C 89.250 129.613,88.589 130.212,88.067 130.719 C 87.545 131.226,87.051 131.600,86.970 131.550 C 86.717 131.394,86.720 132.492,86.973 132.797 C 87.105 132.955,87.449 133.062,87.739 133.035 C 88.162 132.995,88.681 133.393,90.380 135.064 C 92.580 137.226,92.952 137.420,93.577 136.728 C 93.945 136.322,93.934 136.296,92.996 135.344 C 91.933 134.265,91.904 134.189,92.365 133.728 C 92.661 133.432,92.800 133.442,93.973 133.845 C 95.605 134.405,95.749 134.399,96.404 133.744 C 97.022 133.126,96.682 132.380,95.827 132.479 C 94.618 132.618,93.279 131.994,93.305 131.304 C 93.376 129.432,91.009 128.229,89.536 129.388 M91.464 130.950 C 91.984 131.421,91.929 132.087,91.320 132.659 L 90.804 133.144 90.054 132.395 L 89.305 131.645 89.790 131.129 C 90.351 130.532,90.933 130.469,91.464 130.950 M384.039 132.115 C 383.477 132.541,383.251 133.366,383.499 134.078 C 384.091 135.777,386.531 135.309,386.531 133.497 C 386.531 132.162,385.054 131.343,384.039 132.115 M47.827 133.233 C 49.812 135.305,47.344 137.690,45.247 135.725 L 44.388 134.920 45.503 133.787 C 46.777 132.493,47.054 132.427,47.827 133.233 M86.093 132.861 C 85.510 133.202,81.633 137.192,81.633 137.451 C 81.633 137.853,82.450 138.776,82.805 138.776 C 83.411 138.776,83.885 138.170,83.616 137.739 C 83.420 137.425,83.449 137.303,83.781 137.052 C 84.353 136.620,84.222 136.533,86.548 138.874 C 88.844 141.184,88.859 141.193,89.541 140.624 C 90.196 140.077,90.206 140.095,87.952 137.853 C 85.785 135.698,85.315 134.718,86.511 134.850 C 87.648 134.976,87.989 134.131,87.150 133.272 C 86.465 132.572,86.539 132.601,86.093 132.861 M80.327 138.783 C 79.068 139.160,77.968 140.825,78.246 141.934 C 78.669 143.621,79.998 144.039,82.338 143.222 C 83.687 142.752,84.286 142.870,84.286 143.606 C 84.286 144.072,83.313 144.844,82.544 144.988 C 81.801 145.127,81.670 145.430,82.048 146.136 C 82.832 147.601,86.166 144.955,85.825 143.139 C 85.484 141.320,83.783 140.786,81.378 141.743 C 80.501 142.092,80.378 142.098,80.092 141.812 C 79.530 141.250,80.088 140.408,81.022 140.408 C 82.372 140.408,82.863 139.204,81.694 138.760 C 81.128 138.545,81.124 138.545,80.327 138.783 M55.814 141.291 C 54.967 141.678,54.082 143.010,54.082 143.899 C 54.082 144.594,54.063 144.610,53.368 144.529 C 50.585 144.204,48.806 147.140,50.113 149.902 C 51.467 152.765,54.953 153.621,57.002 151.593 C 58.014 150.591,58.061 150.575,58.663 151.049 L 59.220 151.487 59.925 150.782 L 60.630 150.078 60.190 149.519 C 59.775 148.990,59.770 148.939,60.098 148.576 C 60.531 148.097,60.386 147.597,59.589 146.834 L 58.979 146.250 58.563 146.696 C 58.009 147.292,57.902 147.269,57.050 146.378 C 55.142 144.381,56.844 142.239,58.852 144.109 C 59.391 144.611,59.773 144.588,60.495 144.010 L 61.093 143.532 60.634 142.888 C 59.504 141.300,57.354 140.588,55.814 141.291 M76.140 142.699 C 75.205 143.655,75.272 143.827,77.402 145.924 C 78.443 146.949,78.581 147.157,78.163 147.070 C 77.883 147.012,76.573 146.760,75.253 146.510 L 72.853 146.055 72.359 146.519 C 72.052 146.807,71.913 147.109,71.991 147.318 C 72.127 147.680,73.269 148.767,73.520 148.772 C 73.605 148.774,73.673 148.913,73.673 149.082 C 73.673 149.250,73.742 149.388,73.827 149.389 C 74.202 149.392,76.346 151.695,76.238 151.978 C 76.174 152.145,76.286 152.490,76.486 152.745 L 76.851 153.209 77.473 152.676 C 78.542 151.760,78.507 151.543,77.041 150.036 C 75.236 148.180,75.264 148.151,78.280 148.696 C 80.996 149.186,81.312 149.170,81.656 148.528 C 81.902 148.068,81.897 148.061,79.259 145.394 C 77.904 144.024,77.617 143.625,77.694 143.219 C 77.881 142.244,76.904 141.917,76.140 142.699 M298.106 146.753 C 296.054 147.237,294.568 148.796,294.178 150.877 L 294.036 151.633 295.268 151.633 C 296.497 151.633,296.499 151.632,296.738 150.909 C 297.764 147.798,302.861 147.981,303.217 151.140 C 303.433 153.058,302.220 154.136,299.541 154.407 L 298.163 154.546 298.163 155.509 L 298.163 156.472 299.579 156.604 C 302.766 156.900,304.232 158.555,303.493 161.022 C 302.558 164.144,297.022 163.745,296.415 160.512 L 296.281 159.796 295.053 159.796 L 293.825 159.796 293.959 160.631 C 294.988 167.068,305.935 166.804,306.005 160.340 C 306.028 158.168,304.870 156.175,303.364 155.797 C 302.714 155.634,302.715 155.350,303.365 155.186 C 304.481 154.906,305.714 152.922,305.714 151.408 C 305.714 147.830,302.328 145.759,298.106 146.753 M55.476 147.849 L 56.419 148.779 55.700 149.497 C 53.911 151.286,51.251 149.711,52.273 147.468 C 52.761 146.397,54.173 146.565,55.476 147.849 M280.204 148.061 L 280.204 149.184 281.429 149.184 L 282.653 149.184 282.653 157.143 L 282.653 165.102 283.878 165.102 L 285.102 165.102 285.102 156.020 L 285.102 146.939 282.653 146.939 L 280.204 146.939 280.204 148.061 M228.338 147.820 C 224.015 149.293,221.673 153.674,222.679 158.408 C 224.763 168.223,239.438 167.200,239.962 157.203 L 240.051 155.510 235.230 155.510 L 230.408 155.510 230.408 156.531 L 230.408 157.551 233.900 157.551 L 237.392 157.551 237.251 158.305 C 235.823 165.919,225.054 164.015,225.046 156.148 C 225.040 149.880,232.987 146.996,236.221 152.092 C 236.554 152.615,236.672 152.653,237.983 152.653 C 239.611 152.653,239.633 152.608,238.708 151.164 C 236.608 147.882,232.264 146.482,228.338 147.820 M69.388 149.805 C 68.995 150.015,68.513 150.191,68.316 150.196 C 68.120 150.200,67.959 150.331,67.959 150.485 C 67.959 150.640,67.816 150.885,67.641 151.030 C 64.780 153.405,68.213 158.745,71.910 157.670 C 75.861 156.522,75.825 150.307,71.865 149.690 C 71.456 149.627,70.893 149.540,70.612 149.498 C 70.332 149.456,69.781 149.594,69.388 149.805 M246.633 151.348 C 241.816 152.888,240.318 159.842,244.008 163.532 C 247.264 166.788,253.985 165.433,255.199 161.276 C 255.439 160.455,252.782 160.588,252.352 161.418 C 251.206 163.634,247.470 163.907,245.710 161.903 C 245.069 161.173,244.866 160.772,244.618 159.745 L 244.482 159.184 249.996 159.184 L 255.510 159.184 255.510 157.791 C 255.510 153.012,251.204 149.887,246.633 151.348 M263.457 151.214 C 262.650 151.459,261.991 151.838,261.378 152.410 L 260.816 152.934 260.816 152.079 L 260.816 151.224 259.592 151.224 L 258.367 151.224 258.367 158.163 L 258.367 165.102 259.572 165.102 L 260.777 165.102 260.852 160.561 C 260.954 154.406,261.557 153.253,264.683 153.238 C 267.825 153.223,268.393 154.365,268.373 160.663 L 268.359 165.102 269.715 165.102 L 271.071 165.102 270.968 160.255 C 270.850 154.687,270.705 154.022,269.288 152.564 C 268.003 151.242,265.372 150.633,263.457 151.214 M72.577 152.158 C 74.146 153.974,73.001 156.330,70.676 156.068 C 68.883 155.866,67.859 154.031,68.622 152.390 C 69.262 151.015,71.477 150.885,72.577 152.158 M289.242 151.526 C 287.713 152.190,288.275 154.494,289.964 154.487 C 291.744 154.479,292.318 152.188,290.709 151.515 C 289.891 151.174,290.054 151.172,289.242 151.526 M250.522 153.475 C 251.653 153.901,252.665 155.153,252.951 156.480 L 253.094 157.143 248.808 157.143 L 244.523 157.143 244.730 156.378 C 245.430 153.795,247.979 152.518,250.522 153.475 M63.367 155.522 C 58.927 158.355,62.468 165.377,67.123 162.970 C 68.649 162.180,70.440 158.785,69.337 158.773 C 69.196 158.771,68.888 158.718,68.651 158.654 C 68.281 158.555,68.188 158.665,67.997 159.425 C 67.327 162.084,64.207 162.419,63.001 159.962 C 62.293 158.519,64.395 155.630,65.203 156.937 C 65.358 157.189,66.327 156.586,66.327 156.237 C 66.327 155.250,64.489 154.807,63.367 155.522 M288.868 162.542 C 287.856 163.554,288.573 165.306,290.000 165.306 C 290.839 165.306,291.633 164.512,291.633 163.673 C 291.633 162.834,290.839 162.041,290.000 162.041 C 289.602 162.041,289.184 162.226,288.868 162.542 " stroke="none" fill="#000000" fill-rule="evenodd"></path></g></svg>